<svg xmlns="http://www.w3.org/2000/svg" width="20" height="20" viewBox="0 0 20 20">
    <path fill="#8A919C" fill-rule="evenodd" d="M4 2h12a2 2 0 0 1 1.995 1.85L18 4v12a2 2 0 0 1-1.85 1.995L16 18H4a2 2 0 0 1-1.995-1.85L2 16V4a2 2 0 0 1 1.85-1.995L4 2h12zm12 2H4v12h12V4zm-2.896 2.35c.214 0 .415.084.566.235l.706.707a.795.795 0 0 1 .001 1.131l-4.98 4.979a.793.793 0 0 1-.564.234.795.795 0 0 1-.566-.234l-2.643-2.644a.8.8 0 0 1 0-1.131l.707-.707a.794.794 0 0 1 .565-.234c.214 0 .416.083.567.234l1.37 1.37 3.706-3.705a.794.794 0 0 1 .565-.235z"/>
</svg>
