<svg xmlns="http://www.w3.org/2000/svg" width="28" height="32" viewBox="0 0 28 32">
    <path fill="#575C65" fill-rule="evenodd" d="M12.377 16.553h-1.793v-6.96h2.227c1.57 0 2.726.277 3.468.832.742.554 1.114 1.398 1.114 2.531 0 1.258-.395 2.172-1.184 2.742-.789.57-2.066.855-3.832.855zM8.592 7.87v8.683H6.6v1.711h1.992v1.902H6.6v1.711h1.992v3.126h1.992v-3.126h5.976v-1.711h-5.976v-1.902H12.6c2.203 0 3.896-.466 5.08-1.4 1.183-.934 1.775-2.268 1.775-4.002 0-3.328-2.141-4.992-6.422-4.992H8.592z"/>
</svg>
