<svg xmlns="http://www.w3.org/2000/svg" width="80" height="32" viewBox="0 0 80 32">
    <path fill="#575C65" fill-rule="evenodd" d="M72.37 21.766c.57 0 1.004.158 1.301.474.297.317.445.748.445 1.295 0 .555-.15.994-.45 1.319-.302.324-.733.486-1.296.486-.562 0-.992-.16-1.289-.48-.297-.32-.445-.762-.445-1.325 0-.57.148-1.008.445-1.312.297-.305.727-.457 1.29-.457zm-19.879-9.961c1.711 0 3.063.52 4.055 1.558.992 1.04 1.488 2.469 1.488 4.29v1.488h-8.636c.039 1.257.379 2.224 1.02 2.9.64.676 1.542 1.014 2.706 1.014.766 0 1.479-.073 2.139-.217a11.21 11.21 0 0 0 2.127-.72v2.237a8.455 8.455 0 0 1-2.04.68c-.687.133-1.472.2-2.355.2-2.015 0-3.591-.589-4.728-1.764-1.137-1.176-1.705-2.795-1.705-4.858 0-2.117.527-3.781 1.582-4.992 1.054-1.21 2.504-1.816 4.347-1.816zm13.121 0c1.368 0 2.598.254 3.692.761l-.832 2.215c-1.164-.453-2.125-.68-2.883-.68-2.242 0-3.363 1.489-3.363 4.465 0 1.454.28 2.545.838 3.276.558.73 1.377 1.096 2.455 1.096a7.044 7.044 0 0 0 3.48-.915v2.403a5.439 5.439 0 0 1-1.576.62c-.559.126-1.236.188-2.033.188-1.961 0-3.451-.572-4.47-1.716-1.02-1.145-1.53-2.788-1.53-4.928 0-2.18.533-3.856 1.6-5.027 1.066-1.172 2.607-1.758 4.622-1.758zM13.435 7.87c2.14 0 3.744.438 4.81 1.313 1.067.875 1.6 2.164 1.6 3.867 0 1.789-.586 3.16-1.758 4.113-1.172.953-2.84 1.43-5.004 1.43h-1.781v1.673h5.602v2h-5.602v2.737H8.501v-2.737H5.84v-2h2.661v-1.673H5.84v-2.356h2.661V7.87zm15.795-.003L22.855 25h-2.602L26.64 7.867h2.59zm4.212 4.172l2.813 6.867c.25.633.578 1.785.984 3.457l.152-.562c.32-1.164.598-2.059.832-2.684l2.907-7.078h3.668V25h-2.543V14.535l-.211.703c-.352 1.258-.649 2.184-.89 2.778L38.316 25h-2.086l-2.836-7.031a31.5 31.5 0 0 1-1.078-3.434V25h-2.52V12.04h3.645zm19.05 1.852c-.876 0-1.577.277-2.104.832-.527.554-.842 1.363-.943 2.425h5.882c-.015-1.07-.273-1.88-.773-2.431-.5-.551-1.188-.826-2.063-.826zm-39.245-3.677h-1.945v6.023h1.488c1.438 0 2.492-.25 3.164-.75.672-.5 1.008-1.281 1.008-2.343 0-.985-.301-1.719-.902-2.203-.602-.485-1.539-.727-2.813-.727z"/>
</svg>
